<svg width="30" height="23" viewBox="0 0 30 23" fill="none" xmlns="http://www.w3.org/2000/svg">
<path d="M29.9387 16.7985L26.2499 2.24976C26.1529 1.871 25.9474 1.52879 25.6588 1.26502C25.3702 1.00126 25.0109 0.827406 24.6249 0.764756L20.1174 0.0247562C19.6205 -0.0551662 19.1117 0.0525847 18.6898 0.327053C18.2679 0.601521 17.9632 1.02308 17.8349 1.50976L17.8087 1.61601C17.7917 1.68351 17.789 1.75382 17.8007 1.82243C17.8125 1.89104 17.8384 1.95645 17.8769 2.01446C17.9154 2.07247 17.9655 2.1218 18.0242 2.15931C18.0828 2.19681 18.1486 2.22166 18.2174 2.23226C19.2518 2.38405 20.2721 2.61898 21.2687 2.93476C21.5178 3.00993 21.729 3.17704 21.8595 3.40221C21.99 3.62738 22.0299 3.89373 21.9712 4.14726C21.9375 4.27937 21.8771 4.40319 21.7937 4.5111C21.7104 4.61902 21.6058 4.70875 21.4865 4.77478C21.3672 4.84081 21.2357 4.88174 21.1 4.89507C20.9643 4.90839 20.8273 4.89382 20.6974 4.85226C16.9997 3.71824 13.0477 3.71388 9.34744 4.83976C9.09703 4.92395 8.82381 4.90846 8.58452 4.7965C8.34523 4.68454 8.15826 4.4847 8.06244 4.23851C8.0169 4.11217 7.99727 3.97796 8.00472 3.84388C8.01217 3.70979 8.04656 3.57858 8.10582 3.45807C8.16508 3.33757 8.24801 3.23023 8.34965 3.14247C8.4513 3.0547 8.56958 2.98831 8.69744 2.94726C9.70644 2.62587 10.7398 2.38675 11.7874 2.23226C11.8562 2.22166 11.9221 2.19681 11.9807 2.15931C12.0394 2.1218 12.0895 2.07247 12.128 2.01446C12.1665 1.95645 12.1924 1.89104 12.2042 1.82243C12.2159 1.75382 12.2132 1.68351 12.1962 1.61601L12.1699 1.50976C12.0416 1.02267 11.7365 0.600837 11.314 0.326519C10.8916 0.0522008 10.3821 -0.0549341 9.88494 0.026006L5.37494 0.766006C4.98916 0.828564 4.62998 1.00223 4.34136 1.26576C4.05275 1.52928 3.84723 1.87123 3.74994 2.24976L0.0611905 16.7985C-0.0544691 17.2558 -0.00413203 17.7393 0.203245 18.163C0.410621 18.5867 0.761587 18.9231 1.19369 19.1123L9.56869 22.826C9.82052 22.938 10.0926 22.9972 10.3682 23.0002C10.6437 23.0031 10.917 22.9497 11.1712 22.8432C11.4253 22.7366 11.655 22.5792 11.8461 22.3807C12.0372 22.1821 12.1857 21.9466 12.2824 21.6885L12.7187 20.5073C12.7447 20.4365 12.7543 20.3608 12.747 20.2858C12.7396 20.2108 12.7153 20.1384 12.676 20.0741C12.6367 20.0098 12.5833 19.9552 12.5199 19.9144C12.4566 19.8736 12.3848 19.8476 12.3099 19.8385C11.0956 19.6915 9.89756 19.432 8.73119 19.0635C8.48308 18.9881 8.27278 18.8215 8.14265 18.5972C8.01252 18.3729 7.97225 18.1076 8.02994 17.8548C8.06338 17.7223 8.12361 17.5981 8.20692 17.4898C8.29023 17.3815 8.39485 17.2914 8.51433 17.2251C8.6338 17.1588 8.7656 17.1177 8.90158 17.1043C9.03755 17.0909 9.17483 17.1055 9.30494 17.1473C13.0165 18.2839 16.9833 18.2839 20.6949 17.1473C20.8249 17.1057 20.962 17.0912 21.0977 17.1046C21.2335 17.118 21.3651 17.159 21.4844 17.2252C21.6037 17.2913 21.7082 17.3812 21.7915 17.4893C21.8748 17.5973 21.9351 17.7213 21.9687 17.8535C22.027 18.1065 21.9871 18.3723 21.8569 18.5969C21.7267 18.8216 21.516 18.9883 21.2674 19.0635C20.1015 19.4321 18.9039 19.6916 17.6899 19.8385C17.6151 19.8476 17.5433 19.8736 17.4799 19.9144C17.4166 19.9552 17.3632 20.0098 17.3239 20.0741C17.2846 20.1384 17.2603 20.2108 17.2529 20.2858C17.2455 20.3608 17.2552 20.4365 17.2812 20.5073L17.7174 21.6885C17.8143 21.9464 17.9629 22.1819 18.154 22.3803C18.3452 22.5788 18.5748 22.7361 18.8289 22.8426C19.0831 22.9492 19.3563 23.0026 19.6318 22.9998C19.9073 22.9969 20.1793 22.9378 20.4312 22.826L28.8062 19.1123C29.2383 18.9231 29.5893 18.5867 29.7966 18.163C30.004 17.7393 30.0544 17.2558 29.9387 16.7985ZM10.4999 13.9998C10.2033 13.9998 9.91326 13.9118 9.66659 13.747C9.41991 13.5821 9.22765 13.3479 9.11412 13.0738C9.00059 12.7997 8.97089 12.4981 9.02876 12.2071C9.08664 11.9161 9.2295 11.6489 9.43928 11.4391C9.64906 11.2293 9.91633 11.0865 10.2073 11.0286C10.4983 10.9707 10.7999 11.0004 11.074 11.1139C11.3481 11.2275 11.5823 11.4197 11.7471 11.6664C11.912 11.9131 11.9999 12.2031 11.9999 12.4998C11.9999 12.8976 11.8419 13.2791 11.5606 13.5604C11.2793 13.8417 10.8978 13.9998 10.4999 13.9998ZM19.4999 13.9998C19.2033 13.9998 18.9133 13.9118 18.6666 13.747C18.4199 13.5821 18.2277 13.3479 18.1141 13.0738C18.0006 12.7997 17.9709 12.4981 18.0288 12.2071C18.0866 11.9161 18.2295 11.6489 18.4393 11.4391C18.6491 11.2293 18.9163 11.0865 19.2073 11.0286C19.4983 10.9707 19.7999 11.0004 20.074 11.1139C20.3481 11.2275 20.5823 11.4197 20.7471 11.6664C20.912 11.9131 20.9999 12.2031 20.9999 12.4998C20.9999 12.8976 20.8419 13.2791 20.5606 13.5604C20.2793 13.8417 19.8978 13.9998 19.4999 13.9998Z" fill="black" fill-opacity="0.5"/>
</svg>
