<svg width="26" height="26" viewBox="0 0 26 26" fill="none" xmlns="http://www.w3.org/2000/svg">
<path d="M25.9999 13C25.9959 16.1772 24.8301 19.2433 22.7223 21.6208C20.6145 23.9982 17.7101 25.5228 14.5562 25.9075C14.486 25.9154 14.4149 25.9084 14.3475 25.8869C14.2802 25.8653 14.2182 25.8297 14.1657 25.7825C14.1131 25.7353 14.0712 25.6774 14.0426 25.6128C14.014 25.5481 13.9995 25.4781 13.9999 25.4075V16H16.9999C17.137 16.0003 17.2727 15.9724 17.3986 15.918C17.5244 15.8637 17.6378 15.784 17.7315 15.6841C17.8253 15.5841 17.8975 15.4659 17.9437 15.3368C17.9899 15.2077 18.009 15.0705 17.9999 14.9337C17.9779 14.6766 17.8592 14.4373 17.6679 14.2641C17.4766 14.0909 17.2268 13.9965 16.9687 14H13.9999V11C13.9999 10.4695 14.2107 9.96083 14.5857 9.58576C14.9608 9.21068 15.4695 8.99997 15.9999 8.99997H17.9999C18.137 9.00027 18.2727 8.97238 18.3986 8.91804C18.5244 8.86369 18.6378 8.78405 18.7315 8.68405C18.8253 8.58406 18.8975 8.46586 18.9437 8.33678C18.9899 8.2077 19.009 8.07051 18.9999 7.93372C18.9778 7.67614 18.8588 7.43653 18.667 7.26323C18.4751 7.08994 18.2247 6.99586 17.9662 6.99997H15.9999C14.9391 6.99997 13.9217 7.4214 13.1715 8.17154C12.4214 8.92169 11.9999 9.9391 11.9999 11V14H8.99994C8.86286 13.9997 8.72717 14.0276 8.60132 14.0819C8.47546 14.1362 8.36212 14.2159 8.26834 14.3159C8.17456 14.4159 8.10234 14.5341 8.05617 14.6632C8.01 14.7922 7.99086 14.9294 7.99994 15.0662C8.02206 15.3238 8.14105 15.5634 8.3329 15.7367C8.52476 15.91 8.77519 16.0041 9.03369 16H11.9999V25.41C12.0004 25.4805 11.9859 25.5504 11.9574 25.6149C11.9289 25.6795 11.887 25.7373 11.8346 25.7845C11.7822 25.8317 11.7204 25.8673 11.6532 25.8889C11.5861 25.9106 11.5151 25.9177 11.4449 25.91C8.20664 25.5156 5.2344 23.9198 3.11654 21.4386C0.998674 18.9573 -0.110452 15.7713 0.00869322 12.5112C0.258693 5.76122 5.72619 0.273718 12.4812 0.0112183C14.2301 -0.0565241 15.9746 0.229157 17.6105 0.851174C19.2464 1.47319 20.7401 2.41877 22.0021 3.63134C23.2642 4.84391 24.2687 6.29857 24.9556 7.90831C25.6425 9.51805 25.9977 11.2498 25.9999 13Z" fill="black" fill-opacity="0.5"/>
</svg>
