<svg width="24" height="24" viewBox="0 0 24 24" fill="none" xmlns="http://www.w3.org/2000/svg">
<path d="M22 0H2C1.46957 0 0.960859 0.210714 0.585786 0.585786C0.210714 0.960859 0 1.46957 0 2V22C0 22.5304 0.210714 23.0391 0.585786 23.4142C0.960859 23.7893 1.46957 24 2 24H22C22.5304 24 23.0391 23.7893 23.4142 23.4142C23.7893 23.0391 24 22.5304 24 22V2C24 1.46957 23.7893 0.960859 23.4142 0.585786C23.0391 0.210714 22.5304 0 22 0ZM18.7075 17.2925C18.8004 17.3854 18.8741 17.4957 18.9244 17.6171C18.9747 17.7385 19.0006 17.8686 19.0006 18C19.0006 18.1314 18.9747 18.2615 18.9244 18.3829C18.8741 18.5043 18.8004 18.6146 18.7075 18.7075C18.6146 18.8004 18.5043 18.8741 18.3829 18.9244C18.2615 18.9747 18.1314 19.0006 18 19.0006C17.8686 19.0006 17.7385 18.9747 17.6171 18.9244C17.4957 18.8741 17.3854 18.8004 17.2925 18.7075L12 13.4137L6.7075 18.7075C6.51986 18.8951 6.26536 19.0006 6 19.0006C5.73464 19.0006 5.48014 18.8951 5.2925 18.7075C5.10486 18.5199 4.99944 18.2654 4.99944 18C4.99944 17.7346 5.10486 17.4801 5.2925 17.2925L10.5863 12L5.2925 6.7075C5.10486 6.51986 4.99944 6.26536 4.99944 6C4.99944 5.73464 5.10486 5.48014 5.2925 5.2925C5.48014 5.10486 5.73464 4.99944 6 4.99944C6.26536 4.99944 6.51986 5.10486 6.7075 5.2925L12 10.5863L17.2925 5.2925C17.4801 5.10486 17.7346 4.99944 18 4.99944C18.2654 4.99944 18.5199 5.10486 18.7075 5.2925C18.8951 5.48014 19.0006 5.73464 19.0006 6C19.0006 6.26536 18.8951 6.51986 18.7075 6.7075L13.4137 12L18.7075 17.2925Z" fill="black" fill-opacity="0.5"/>
</svg>
