<svg width="40" height="42" viewBox="0 0 40 42" fill="none" xmlns="http://www.w3.org/2000/svg">
<path d="M39.8797 1.76557C39.8549 1.33744 39.6747 0.9334 39.3734 0.630153C39.072 0.326907 38.6705 0.145568 38.2451 0.120566C21.6963 -0.857246 8.44077 4.1565 2.78901 13.5628C0.82995 16.7804 -0.135428 20.511 0.0153056 24.2815C0.113695 26.6926 0.601185 29.0716 1.45868 31.3253C1.50906 31.4639 1.59351 31.5876 1.70415 31.6846C1.8148 31.7816 1.94804 31.8488 2.09146 31.88C2.23489 31.9113 2.38383 31.9054 2.52442 31.8631C2.66501 31.8208 2.79268 31.7434 2.89553 31.6381L21.3724 12.7599C21.534 12.5973 21.7258 12.4684 21.9369 12.3804C22.148 12.2924 22.3743 12.2471 22.6028 12.2471C22.8313 12.2471 23.0575 12.2924 23.2686 12.3804C23.4797 12.4684 23.6715 12.5973 23.8331 12.7599C23.9947 12.9225 24.1228 13.1156 24.2103 13.328C24.2977 13.5404 24.3427 13.7681 24.3427 13.9981C24.3427 14.228 24.2977 14.4557 24.2103 14.6681C24.1228 14.8806 23.9947 15.0736 23.8331 15.2362L3.64112 35.8621L0.556569 38.9662C0.235779 39.2805 0.0442646 39.7047 0.0200993 40.1546C-0.0040659 40.6045 0.140889 41.0471 0.426145 41.3943C0.582365 41.5764 0.774203 41.7241 0.989681 41.8282C1.20516 41.9323 1.43965 41.9906 1.67851 41.9994C1.91738 42.0082 2.15548 41.9674 2.37797 41.8795C2.60045 41.7915 2.80254 41.6584 2.97161 41.4884L6.62134 37.8156C9.69502 39.3118 12.797 40.1278 15.8728 40.2371C16.1148 40.2459 16.3561 40.2503 16.5967 40.2503C20.0995 40.2593 23.5358 39.2883 26.522 37.4459C35.8692 31.7584 40.8536 18.4212 39.8797 1.76557Z" fill="white"/>
</svg>
