<svg width="40" height="42" viewBox="0 0 40 42" fill="none" xmlns="http://www.w3.org/2000/svg">
<path d="M36.6667 0H3.33333C2.44928 0 1.60143 0.351189 0.976311 0.976311C0.351189 1.60143 0 2.44928 0 3.33333V15C0 25.9833 5.31667 32.6396 9.77708 36.2896C14.5812 40.2188 19.3604 41.5521 19.5688 41.6083C19.8552 41.6863 20.1573 41.6863 20.4438 41.6083C20.6521 41.5521 25.425 40.2188 30.2354 36.2896C34.6833 32.6396 40 25.9833 40 15V3.33333C40 2.44928 39.6488 1.60143 39.0237 0.976311C38.3986 0.351189 37.5507 0 36.6667 0ZM29.5167 14.5125L17.85 26.1792C17.6952 26.3341 17.5114 26.4571 17.3091 26.5409C17.1067 26.6248 16.8899 26.668 16.6708 26.668C16.4518 26.668 16.2349 26.6248 16.0326 26.5409C15.8303 26.4571 15.6465 26.3341 15.4917 26.1792L10.4917 21.1792C10.1789 20.8664 10.0032 20.4423 10.0032 20C10.0032 19.5577 10.1789 19.1336 10.4917 18.8208C10.8044 18.5081 11.2286 18.3324 11.6708 18.3324C12.1131 18.3324 12.5373 18.5081 12.85 18.8208L16.6667 22.6438L27.1542 12.1542C27.309 11.9993 27.4928 11.8765 27.6952 11.7927C27.8975 11.7089 28.1143 11.6657 28.3333 11.6657C28.5523 11.6657 28.7692 11.7089 28.9715 11.7927C29.1738 11.8765 29.3576 11.9993 29.5125 12.1542C29.6674 12.309 29.7902 12.4929 29.874 12.6952C29.9578 12.8975 30.0009 13.1143 30.0009 13.3333C30.0009 13.5523 29.9578 13.7692 29.874 13.9715C29.7902 14.1738 29.6674 14.3577 29.5125 14.5125H29.5167Z" fill="white"/>
</svg>
